<svg width="32" height="36" viewBox="0 0 32 36" fill="none" xmlns="http://www.w3.org/2000/svg">
<g filter="url(#filter0_dddd_1068_552)">
<path d="M7.80034 4.66709C7.96726 4.46818 8.05025 4.21213 8.03177 3.95313C8.01328 3.69412 7.89478 3.45245 7.70131 3.27925C7.50785 3.10605 7.2546 3.0149 6.99513 3.02507C6.73566 3.03524 6.49032 3.14594 6.31101 3.33376C4.67297 5.16076 3.58732 7.41528 3.18034 9.83509C3.1427 10.0938 3.20789 10.357 3.36195 10.5683C3.51601 10.7795 3.74669 10.9221 4.00455 10.9653C4.26242 11.0085 4.52697 10.9491 4.74151 10.7996C4.95605 10.6502 5.10353 10.4226 5.15234 10.1658C5.49653 8.1191 6.41481 6.21226 7.80034 4.66709ZM25.6897 3.33376C25.6024 3.23501 25.4964 3.15449 25.3779 3.09683C25.2593 3.03918 25.1306 3.00552 24.999 2.99781C24.8674 2.99009 24.7356 3.00847 24.6111 3.05188C24.4867 3.09529 24.372 3.16287 24.2738 3.25075C24.1755 3.33862 24.0956 3.44505 24.0387 3.56392C23.9817 3.68279 23.9488 3.81174 23.9419 3.94337C23.9349 4.075 23.9541 4.2067 23.9982 4.3309C24.0423 4.45511 24.1106 4.56936 24.199 4.66709C25.585 6.21214 26.5037 8.11898 26.8483 10.1658C26.8922 10.4274 27.0382 10.661 27.2542 10.815C27.3612 10.8913 27.4822 10.9457 27.6102 10.9753C27.7382 11.0048 27.8708 11.0088 28.0003 10.9871C28.1299 10.9654 28.2539 10.9184 28.3653 10.8487C28.4767 10.7791 28.5733 10.6882 28.6496 10.5812C28.7259 10.4742 28.7803 10.3533 28.8098 10.2253C28.8394 10.0972 28.8434 9.96466 28.8217 9.83509C28.4139 7.41502 27.3286 5.16048 25.6897 3.33376Z" fill="#21232D"/>
<path fill-rule="evenodd" clip-rule="evenodd" d="M16.0005 3C13.6136 3 11.3244 3.94821 9.63658 5.63604C7.94875 7.32387 7.00054 9.61305 7.00054 12V13C7.00464 15.7189 5.99762 18.3422 4.17521 20.36C4.06576 20.4814 3.98775 20.6278 3.948 20.7863C3.90824 20.9449 3.90796 21.1108 3.94717 21.2694C3.98638 21.4281 4.06389 21.5748 4.17291 21.6966C4.28193 21.8183 4.41915 21.9115 4.57254 21.968C6.63121 22.728 8.78587 23.288 11.0139 23.6253C10.9637 24.3109 11.0554 24.9994 11.2833 25.6478C11.5112 26.2963 11.8703 26.8909 12.3383 27.3943C12.8062 27.8978 13.373 28.2993 14.0031 28.5739C14.6332 28.8485 15.3132 28.9902 16.0005 28.9902C16.6879 28.9902 17.3679 28.8485 17.998 28.5739C18.6281 28.2993 19.1949 27.8978 19.6628 27.3943C20.1308 26.8909 20.4899 26.2963 20.7178 25.6478C20.9457 24.9994 21.0374 24.3109 20.9872 23.6253C23.1846 23.2922 25.3423 22.7365 27.4272 21.9667C27.5804 21.9101 27.7173 21.8169 27.8262 21.6953C27.935 21.5736 28.0124 21.4271 28.0516 21.2686C28.0908 21.1101 28.0906 20.9445 28.051 20.7861C28.0114 20.6277 27.9337 20.4814 27.8245 20.36C26.0026 18.342 24.9961 15.7187 25.0005 13V12C25.0005 9.61305 24.0523 7.32387 22.3645 5.63604C20.6767 3.94821 18.3875 3 16.0005 3ZM13.0005 24C13.0005 23.9547 13.0005 23.9107 13.0032 23.8667C14.9974 24.0464 17.0037 24.0464 18.9979 23.8667L19.0005 24C19.0005 24.7957 18.6845 25.5587 18.1219 26.1213C17.5592 26.6839 16.7962 27 16.0005 27C15.2049 27 14.4418 26.6839 13.8792 26.1213C13.3166 25.5587 13.0005 24.7957 13.0005 24Z" fill="#21232D"/>
</g>
<defs>
<filter id="filter0_dddd_1068_552" x="-2" y="-1" width="36" height="40" filterUnits="userSpaceOnUse" color-interpolation-filters="sRGB">
<feFlood flood-opacity="0" result="BackgroundImageFix"/>
<feColorMatrix in="SourceAlpha" type="matrix" values="0 0 0 0 0 0 0 0 0 0 0 0 0 0 0 0 0 0 127 0" result="hardAlpha"/>
<feOffset/>
<feGaussianBlur stdDeviation="0.5"/>
<feColorMatrix type="matrix" values="0 0 0 0 0.113725 0 0 0 0 0.117647 0 0 0 0 0.145098 0 0 0 0.15 0"/>
<feBlend mode="normal" in2="BackgroundImageFix" result="effect1_dropShadow_1068_552"/>
<feColorMatrix in="SourceAlpha" type="matrix" values="0 0 0 0 0 0 0 0 0 0 0 0 0 0 0 0 0 0 127 0" result="hardAlpha"/>
<feOffset dy="1"/>
<feGaussianBlur stdDeviation="0.5"/>
<feColorMatrix type="matrix" values="0 0 0 0 0.113725 0 0 0 0 0.117647 0 0 0 0 0.145098 0 0 0 0.13 0"/>
<feBlend mode="normal" in2="effect1_dropShadow_1068_552" result="effect2_dropShadow_1068_552"/>
<feColorMatrix in="SourceAlpha" type="matrix" values="0 0 0 0 0 0 0 0 0 0 0 0 0 0 0 0 0 0 127 0" result="hardAlpha"/>
<feOffset dy="3"/>
<feGaussianBlur stdDeviation="1"/>
<feColorMatrix type="matrix" values="0 0 0 0 0.113725 0 0 0 0 0.117647 0 0 0 0 0.145098 0 0 0 0.08 0"/>
<feBlend mode="normal" in2="effect2_dropShadow_1068_552" result="effect3_dropShadow_1068_552"/>
<feColorMatrix in="SourceAlpha" type="matrix" values="0 0 0 0 0 0 0 0 0 0 0 0 0 0 0 0 0 0 127 0" result="hardAlpha"/>
<feOffset dy="5"/>
<feGaussianBlur stdDeviation="1"/>
<feColorMatrix type="matrix" values="0 0 0 0 0.113725 0 0 0 0 0.117647 0 0 0 0 0.145098 0 0 0 0.02 0"/>
<feBlend mode="normal" in2="effect3_dropShadow_1068_552" result="effect4_dropShadow_1068_552"/>
<feBlend mode="normal" in="SourceGraphic" in2="effect4_dropShadow_1068_552" result="shape"/>
</filter>
</defs>
</svg>
